<?xml version="1.0" encoding="utf-8"?>
<!-- Generator: Adobe Illustrator 16.0.1, SVG Export Plug-In . SVG Version: 6.00 Build 0)  -->
<!DOCTYPE svg PUBLIC "-//W3C//DTD SVG 1.1//EN" "http://www.w3.org/Graphics/SVG/1.1/DTD/svg11.dtd">
<svg version="1.1" id="Layer_1" xmlns="http://www.w3.org/2000/svg" xmlns:xlink="http://www.w3.org/1999/xlink" x="0px" y="0px"
	 width="841.89px" height="1090.893px" viewBox="0 0 841.89 1090.893" enable-background="new 0 0 841.89 1090.893"
	 xml:space="preserve">
<g>
	<g>
		<path d="M271.069,719.407l1.19,0.95c5.75,4.591,9.911,10.629,12.156,17.379v-48.218h-54.351v13.348h41.005V719.407z"/>
		<path d="M271.069,721.849v27.65c0,12.147-9.882,22.031-22.03,22.031s-22.03-9.884-22.03-22.031v-2.573h-13.346v2.573
			c0,19.506,15.87,35.376,35.376,35.376c19.506,0,35.376-15.87,35.376-35.376C284.416,738.316,279.195,728.337,271.069,721.849z"/>
		<path d="M227.468,745.018c2.076-10.006,10.958-17.549,21.571-17.549c8.961,0,16.684,5.381,20.122,13.078v-20.111
			c-5.717-3.973-12.648-6.313-20.122-6.313c-8.054,0-15.812,2.757-22.03,7.708v-32.312h-13.346v55.499H227.468z"/>
	</g>
	<g>
		<path d="M295.172,720.157h4.472v10.394c1.917-0.806,3.972-1.208,6.163-1.208c8.024,0,12.037,4.061,12.037,12.182
			c0,8.798-4.214,13.197-12.642,13.197c-3.642,0-6.985-0.347-10.03-1.039V720.157z M299.644,750.299
			c1.466,0.467,3.246,0.7,5.342,0.7c5.64,0,8.459-3.214,8.459-9.644c0-5.431-2.554-8.146-7.662-8.146
			c-2.32,0-4.366,0.435-6.139,1.305V750.299z"/>
		<path d="M320.055,747.06c0-5.204,3.432-7.807,10.297-7.807c2.207,0,4.414,0.161,6.622,0.483v-2.394c0-2.916-2.28-4.375-6.84-4.375
			c-2.61,0-5.285,0.403-8.024,1.209v-3.626c2.739-0.806,5.414-1.208,8.024-1.208c7.541,0,11.312,2.626,11.312,7.879v17.5h-2.514
			l-1.547-2.514c-2.53,1.676-5.285,2.514-8.267,2.514C323.076,754.722,320.055,752.168,320.055,747.06z M330.352,742.878
			c-3.884,0-5.825,1.37-5.825,4.109s1.53,4.108,4.592,4.108c3.094,0,5.713-0.821,7.855-2.465v-5.27
			C334.766,743.039,332.559,742.878,330.352,742.878z"/>
		<path d="M345.893,729.343h19.819v3.625l-15.154,18.37h14.671v3.384h-19.819v-3.384l15.349-18.37h-14.865V729.343z"/>
		<path d="M367.478,747.06c0-5.204,3.432-7.807,10.297-7.807c2.207,0,4.414,0.161,6.622,0.483v-2.394c0-2.916-2.28-4.375-6.84-4.375
			c-2.61,0-5.285,0.403-8.024,1.209v-3.626c2.739-0.806,5.414-1.208,8.024-1.208c7.541,0,11.312,2.626,11.312,7.879v17.5h-2.514
			l-1.547-2.514c-2.53,1.676-5.285,2.514-8.267,2.514C370.499,754.722,367.478,752.168,367.478,747.06z M377.774,742.878
			c-3.884,0-5.825,1.37-5.825,4.109s1.53,4.108,4.592,4.108c3.094,0,5.713-0.821,7.855-2.465v-5.27
			C382.188,743.039,379.981,742.878,377.774,742.878z"/>
		<path d="M399.095,729.343v23.445c0,5.124-1.249,8.976-3.747,11.554l-3.746-2.538c2.014-2.176,3.021-5.181,3.021-9.016v-23.445
			H399.095z M399.095,720.157v4.23h-4.472v-4.23H399.095z"/>
		<path d="M414.522,729.343c7.22,0,10.829,3.569,10.829,10.707c0,1.016-0.072,2.104-0.219,3.264H407.32
			c0,5.188,3.029,7.782,9.088,7.782c2.885,0,5.445-0.321,7.686-0.967v3.626c-2.24,0.645-4.963,0.967-8.169,0.967
			c-8.718,0-13.076-4.326-13.076-12.979C402.849,733.476,406.74,729.343,414.522,729.343z M407.32,739.591h13.729
			c-0.098-4.447-2.271-6.671-6.526-6.671C410.011,732.92,407.61,735.144,407.32,739.591z"/>
		<path d="M451.446,753.199c-3.078,1.015-6.873,1.522-11.385,1.522c-7.558,0-11.336-4.399-11.336-13.197
			c0-8.121,4.013-12.182,12.037-12.182c2.191,0,4.262,0.402,6.212,1.208v-10.394h4.472V753.199z M446.975,734.515
			c-1.805-0.87-3.867-1.305-6.188-1.305c-5.108,0-7.662,2.715-7.662,8.146c0,6.43,2.554,9.644,7.662,9.644
			c2.32,0,4.383-0.313,6.188-0.942V734.515z"/>
		<path d="M455.893,729.343h19.82v3.625l-15.155,18.37h14.672v3.384h-19.82v-3.384l15.349-18.37h-14.865V729.343z"/>
		<path d="M489.846,729.343c7.219,0,10.828,3.569,10.828,10.707c0,1.016-0.072,2.104-0.218,3.264h-17.813
			c0,5.188,3.029,7.782,9.088,7.782c2.885,0,5.446-0.321,7.687-0.967v3.626c-2.24,0.645-4.963,0.967-8.17,0.967
			c-8.718,0-13.076-4.326-13.076-12.979C478.171,733.476,482.062,729.343,489.846,729.343z M482.643,739.591h13.729
			c-0.097-4.447-2.271-6.671-6.525-6.671C485.333,732.92,482.933,735.144,482.643,739.591z"/>
		<path d="M505.158,754.722v-25.379h3.021l0.798,3.238c2.595-2.159,5.446-3.238,8.557-3.238c6.333,0,9.499,3.15,9.499,9.45v15.929
			h-4.472v-16.001c0-3.771-1.877-5.656-5.632-5.656c-2.562,0-4.995,1.072-7.3,3.215v18.442H505.158z"/>
		<path d="M535.377,720.157v4.23h-4.472v-4.23H535.377z M535.377,729.343v25.379h-4.472v-25.379H535.377z"/>
		<path d="M538.884,747.06c0-5.204,3.433-7.807,10.297-7.807c2.207,0,4.415,0.161,6.623,0.483v-2.394
			c0-2.916-2.281-4.375-6.841-4.375c-2.61,0-5.285,0.403-8.024,1.209v-3.626c2.739-0.806,5.414-1.208,8.024-1.208
			c7.541,0,11.312,2.626,11.312,7.879v17.5h-2.514l-1.547-2.514c-2.529,1.676-5.285,2.514-8.266,2.514
			C541.905,754.722,538.884,752.168,538.884,747.06z M549.181,742.878c-3.884,0-5.825,1.37-5.825,4.109s1.53,4.108,4.593,4.108
			c3.094,0,5.712-0.821,7.855-2.465v-5.27C553.596,743.039,551.388,742.878,549.181,742.878z"/>
		<path d="M567.842,751.7v3.021h-3.263V751.7H567.842z"/>
		<path d="M572.388,730.382c2.885-0.692,6.123-1.039,9.717-1.039c8.137,0,12.206,4.021,12.206,12.061
			c0,8.879-4.093,13.318-12.278,13.318c-2.03,0-4.399-0.402-7.106-1.209v10.394h-2.538V730.382z M574.926,750.999
			c2.562,0.87,4.923,1.306,7.082,1.306c6.558,0,9.837-3.649,9.837-10.949c0-6.494-3.263-9.741-9.789-9.741
			c-2.256,0-4.633,0.193-7.13,0.58V750.999z"/>
		<path d="M599.155,720.157v34.564h-2.538v-34.564H599.155z"/>
	</g>
</g>
<g>
	<g>
		<path fill="none" d="M244.404,486.104c-12.148,0-22.03,9.883-22.03,22.03s9.882,22.031,22.03,22.031
			c12.148,0,22.03-9.884,22.03-22.031S256.553,486.104,244.404,486.104z"/>
		<path fill="#D7DF23" d="M222.375,508.135c0-12.147,9.882-22.03,22.03-22.03c12.148,0,22.03,9.883,22.03,22.03v-27.65
			c-6.049-4.829-13.706-7.727-22.03-7.727c-8.054,0-15.812,2.756-22.03,7.708v-32.312h-13.346v57.407h13.346V508.135z"/>
		<path fill="#27AAE1" d="M225.429,448.154v13.348h41.005v18.982c8.125,6.488,13.346,16.468,13.346,27.65v-59.98H225.429z"/>
		<path fill="#4AA147" d="M266.435,480.484v27.65c0,12.147-9.882,22.031-22.03,22.031c-12.148,0-22.03-9.884-22.03-22.031v-2.573
			h-13.346v2.573c0,19.506,15.87,35.376,35.376,35.376c19.507,0,35.376-15.87,35.376-35.376
			C279.781,496.952,274.56,486.973,266.435,480.484z"/>
	</g>
	<g>
		<path d="M290.537,478.793h4.472v10.394c1.917-0.806,3.972-1.208,6.164-1.208c8.024,0,12.037,4.061,12.037,12.182
			c0,8.798-4.214,13.197-12.642,13.197c-3.642,0-6.985-0.347-10.031-1.039V478.793z M295.008,508.935
			c1.466,0.467,3.247,0.7,5.342,0.7c5.64,0,8.459-3.214,8.459-9.644c0-5.431-2.554-8.146-7.662-8.146
			c-2.32,0-4.367,0.435-6.139,1.305V508.935z"/>
		<path d="M315.419,505.695c0-5.204,3.432-7.807,10.297-7.807c2.208,0,4.415,0.161,6.623,0.483v-2.394
			c0-2.916-2.28-4.375-6.84-4.375c-2.61,0-5.285,0.403-8.024,1.209v-3.626c2.739-0.806,5.414-1.208,8.024-1.208
			c7.542,0,11.312,2.626,11.312,7.879v17.5h-2.514l-1.547-2.514c-2.53,1.676-5.286,2.514-8.267,2.514
			C318.441,513.357,315.419,510.804,315.419,505.695z M325.716,501.514c-3.884,0-5.825,1.37-5.825,4.109s1.531,4.108,4.592,4.108
			c3.094,0,5.712-0.821,7.855-2.465v-5.27C330.131,501.675,327.924,501.514,325.716,501.514z"/>
		<path d="M341.257,487.979h19.82v3.625l-15.155,18.37h14.671v3.384h-19.82v-3.384l15.349-18.37h-14.865V487.979z"/>
		<path d="M362.842,505.695c0-5.204,3.432-7.807,10.297-7.807c2.208,0,4.415,0.161,6.623,0.483v-2.394
			c0-2.916-2.28-4.375-6.84-4.375c-2.61,0-5.285,0.403-8.024,1.209v-3.626c2.739-0.806,5.414-1.208,8.024-1.208
			c7.542,0,11.312,2.626,11.312,7.879v17.5h-2.514l-1.547-2.514c-2.53,1.676-5.286,2.514-8.267,2.514
			C365.864,513.357,362.842,510.804,362.842,505.695z M373.139,501.514c-3.884,0-5.825,1.37-5.825,4.109s1.531,4.108,4.592,4.108
			c3.094,0,5.712-0.821,7.855-2.465v-5.27C377.554,501.675,375.347,501.514,373.139,501.514z"/>
		<path d="M394.459,487.979v23.445c0,5.124-1.249,8.976-3.747,11.554l-3.746-2.538c2.014-2.176,3.021-5.181,3.021-9.016v-23.445
			H394.459z M394.459,478.793v4.23h-4.472v-4.23H394.459z"/>
		<path d="M409.888,487.979c7.22,0,10.829,3.569,10.829,10.707c0,1.016-0.072,2.104-0.219,3.264h-17.813
			c0,5.188,3.029,7.782,9.088,7.782c2.884,0,5.446-0.321,7.686-0.967v3.626c-2.24,0.645-4.963,0.967-8.169,0.967
			c-8.717,0-13.076-4.326-13.076-12.979C398.213,492.111,402.105,487.979,409.888,487.979z M402.685,498.227h13.729
			c-0.097-4.447-2.272-6.671-6.526-6.671C405.376,491.556,402.975,493.779,402.685,498.227z"/>
		<path d="M446.812,511.835c-3.078,1.015-6.873,1.522-11.385,1.522c-7.558,0-11.336-4.399-11.336-13.197
			c0-8.121,4.013-12.182,12.037-12.182c2.191,0,4.262,0.402,6.212,1.208v-10.394h4.472V511.835z M442.34,493.15
			c-1.805-0.87-3.867-1.305-6.188-1.305c-5.108,0-7.662,2.715-7.662,8.146c0,6.43,2.554,9.644,7.662,9.644
			c2.32,0,4.383-0.313,6.188-0.942V493.15z"/>
		<path d="M451.258,487.979h19.82v3.625l-15.155,18.37h14.672v3.384h-19.82v-3.384l15.349-18.37h-14.865V487.979z"/>
		<path d="M485.211,487.979c7.219,0,10.828,3.569,10.828,10.707c0,1.016-0.072,2.104-0.218,3.264h-17.813
			c0,5.188,3.029,7.782,9.088,7.782c2.885,0,5.446-0.321,7.687-0.967v3.626c-2.24,0.645-4.963,0.967-8.17,0.967
			c-8.718,0-13.076-4.326-13.076-12.979C473.536,492.111,477.428,487.979,485.211,487.979z M478.008,498.227h13.729
			c-0.097-4.447-2.271-6.671-6.525-6.671C480.698,491.556,478.298,493.779,478.008,498.227z"/>
		<path d="M500.523,513.357v-25.379h3.021l0.798,3.238c2.595-2.159,5.446-3.238,8.557-3.238c6.333,0,9.499,3.15,9.499,9.45v15.929
			h-4.472v-16.001c0-3.771-1.877-5.656-5.632-5.656c-2.562,0-4.995,1.072-7.3,3.215v18.442H500.523z"/>
		<path d="M530.742,478.793v4.23h-4.472v-4.23H530.742z M530.742,487.979v25.379h-4.472v-25.379H530.742z"/>
		<path d="M534.249,505.695c0-5.204,3.433-7.807,10.297-7.807c2.207,0,4.415,0.161,6.623,0.483v-2.394
			c0-2.916-2.281-4.375-6.841-4.375c-2.61,0-5.285,0.403-8.024,1.209v-3.626c2.739-0.806,5.414-1.208,8.024-1.208
			c7.541,0,11.312,2.626,11.312,7.879v17.5h-2.514l-1.547-2.514c-2.529,1.676-5.285,2.514-8.266,2.514
			C537.271,513.357,534.249,510.804,534.249,505.695z M544.546,501.514c-3.884,0-5.825,1.37-5.825,4.109s1.53,4.108,4.593,4.108
			c3.094,0,5.712-0.821,7.855-2.465v-5.27C548.961,501.675,546.753,501.514,544.546,501.514z"/>
		<path d="M563.207,510.336v3.021h-3.263v-3.021H563.207z"/>
		<path d="M567.753,489.018c2.885-0.692,6.123-1.039,9.717-1.039c8.137,0,12.206,4.021,12.206,12.061
			c0,8.879-4.093,13.318-12.278,13.318c-2.03,0-4.399-0.402-7.106-1.209v10.394h-2.538V489.018z M570.291,509.635
			c2.562,0.87,4.923,1.306,7.082,1.306c6.558,0,9.837-3.649,9.837-10.949c0-6.494-3.263-9.741-9.789-9.741
			c-2.256,0-4.633,0.193-7.13,0.58V509.635z"/>
		<path d="M594.521,478.793v34.564h-2.538v-34.564H594.521z"/>
	</g>
</g>
<g>
	<g>
		<rect x="249.259" y="72.96" fill="#D7DF23" width="25.786" height="10.477"/>
		<g>
			<text transform="matrix(1 0 0 1 224.999 105.7007)"><tspan x="0" y="0" font-family="'Sansation-Bold'" font-size="7.8579">c</tspan><tspan x="0" y="9.429" font-family="'Sansation-Bold'" font-size="7.8579">m</tspan><tspan x="0" y="18.859" font-family="'Sansation-Bold'" font-size="7.8579">y</tspan><tspan x="0" y="28.288" font-family="'Sansation-Bold'" font-size="7.8579">k</tspan></text>
			<text transform="matrix(1 0 0 1 240.0596 105.7007)"><tspan x="0" y="0" font-family="'Sansation-Regular'" font-size="7.8579">20</tspan><tspan x="0" y="9.429" font-family="'Sansation-Regular'" font-size="7.8579">0</tspan><tspan x="0" y="18.859" font-family="'Sansation-Regular'" font-size="7.8579">100</tspan><tspan x="0" y="28.288" font-family="'Sansation-Regular'" font-size="7.8579">0</tspan></text>
			<text transform="matrix(1 0 0 1 272.8008 105.7007)"><tspan x="0" y="0" font-family="'Sansation-Bold'" font-size="7.8579">r</tspan><tspan x="0" y="9.429" font-family="'Sansation-Bold'" font-size="7.8579">g</tspan><tspan x="0" y="18.859" font-family="'Sansation-Bold'" font-size="7.8579">b</tspan></text>
			<text transform="matrix(1 0 0 1 285.8975 105.7007)"><tspan x="0" y="0" font-family="'Sansation-Regular'" font-size="7.8579">24</tspan><tspan x="0" y="9.429" font-family="'Sansation-Regular'" font-size="7.8579">223</tspan><tspan x="0" y="18.859" font-family="'Sansation-Regular'" font-size="7.8579">35</tspan></text>
			
				<line fill="none" stroke="#000000" stroke-width="0.6548" stroke-miterlimit="10" x1="235.149" y1="97.189" x2="235.149" y2="137.46"/>
			
				<line fill="none" stroke="#000000" stroke-width="0.6548" stroke-miterlimit="10" x1="281.642" y1="97.189" x2="281.642" y2="137.46"/>
		</g>
	</g>
	<g>
		<rect x="356.431" y="72.96" fill="#27AAE1" width="25.786" height="10.477"/>
		<g>
			<text transform="matrix(1 0 0 1 332.1299 105.7007)"><tspan x="0" y="0" font-family="'Sansation-Bold'" font-size="7.8579">c</tspan><tspan x="0" y="9.429" font-family="'Sansation-Bold'" font-size="7.8579">m</tspan><tspan x="0" y="18.859" font-family="'Sansation-Bold'" font-size="7.8579">y</tspan><tspan x="0" y="28.288" font-family="'Sansation-Bold'" font-size="7.8579">k</tspan></text>
			<text transform="matrix(1 0 0 1 347.1904 105.7007)"><tspan x="0" y="0" font-family="'Sansation-Regular'" font-size="7.8579">70</tspan><tspan x="0" y="9.429" font-family="'Sansation-Regular'" font-size="7.8579">15</tspan><tspan x="0" y="18.859" font-family="'Sansation-Regular'" font-size="7.8579">0</tspan><tspan x="0" y="28.288" font-family="'Sansation-Regular'" font-size="7.8579">0</tspan></text>
			<text transform="matrix(1 0 0 1 379.9321 105.7007)"><tspan x="0" y="0" font-family="'Sansation-Bold'" font-size="7.8579">r</tspan><tspan x="0" y="9.429" font-family="'Sansation-Bold'" font-size="7.8579">g</tspan><tspan x="0" y="18.859" font-family="'Sansation-Bold'" font-size="7.8579">b</tspan></text>
			<text transform="matrix(1 0 0 1 393.0283 105.7007)"><tspan x="0" y="0" font-family="'Sansation-Regular'" font-size="7.8579">39</tspan><tspan x="0" y="9.429" font-family="'Sansation-Regular'" font-size="7.8579">169</tspan><tspan x="0" y="18.859" font-family="'Sansation-Regular'" font-size="7.8579">225</tspan></text>
			
				<line fill="none" stroke="#000000" stroke-width="0.6548" stroke-miterlimit="10" x1="342.281" y1="97.189" x2="342.281" y2="137.46"/>
			
				<line fill="none" stroke="#000000" stroke-width="0.6548" stroke-miterlimit="10" x1="388.773" y1="97.189" x2="388.773" y2="137.46"/>
		</g>
	</g>
	<g>
		<rect x="463.604" y="72.96" fill="#4AA147" width="25.786" height="10.477"/>
		<g>
			<text transform="matrix(1 0 0 1 441.2734 105.7007)"><tspan x="0" y="0" font-family="'Sansation-Bold'" font-size="7.8579">c</tspan><tspan x="0" y="9.429" font-family="'Sansation-Bold'" font-size="7.8579">m</tspan><tspan x="0" y="18.859" font-family="'Sansation-Bold'" font-size="7.8579">y</tspan><tspan x="0" y="28.288" font-family="'Sansation-Bold'" font-size="7.8579">k</tspan></text>
			<text transform="matrix(1 0 0 1 456.335 105.7007)"><tspan x="0" y="0" font-family="'Sansation-Regular'" font-size="7.8579">75</tspan><tspan x="0" y="9.429" font-family="'Sansation-Regular'" font-size="7.8579">15</tspan><tspan x="0" y="18.859" font-family="'Sansation-Regular'" font-size="7.8579">100</tspan><tspan x="0" y="28.288" font-family="'Sansation-Regular'" font-size="7.8579">0</tspan></text>
			<text transform="matrix(1 0 0 1 489.0762 105.7007)"><tspan x="0" y="0" font-family="'Sansation-Bold'" font-size="7.8579">r</tspan><tspan x="0" y="9.429" font-family="'Sansation-Bold'" font-size="7.8579">g</tspan><tspan x="0" y="18.859" font-family="'Sansation-Bold'" font-size="7.8579">b</tspan></text>
			<text transform="matrix(1 0 0 1 502.1719 105.7007)"><tspan x="0" y="0" font-family="'Sansation-Regular'" font-size="7.8579">74</tspan><tspan x="0" y="9.429" font-family="'Sansation-Regular'" font-size="7.8579">161</tspan><tspan x="0" y="18.859" font-family="'Sansation-Regular'" font-size="7.8579">71</tspan></text>
			
				<line fill="none" stroke="#000000" stroke-width="0.6548" stroke-miterlimit="10" x1="451.424" y1="97.189" x2="451.424" y2="137.46"/>
			
				<line fill="none" stroke="#000000" stroke-width="0.6548" stroke-miterlimit="10" x1="497.916" y1="97.189" x2="497.916" y2="137.46"/>
		</g>
	</g>
	<g>
		<rect x="570.776" y="72.96" width="25.785" height="10.477"/>
		<g>
			<text transform="matrix(1 0 0 1 550.4473 105.7007)"><tspan x="0" y="0" font-family="'Sansation-Bold'" font-size="7.8579">c</tspan><tspan x="0" y="9.429" font-family="'Sansation-Bold'" font-size="7.8579">m</tspan><tspan x="0" y="18.859" font-family="'Sansation-Bold'" font-size="7.8579">y</tspan><tspan x="0" y="28.288" font-family="'Sansation-Bold'" font-size="7.8579">k</tspan></text>
			<text transform="matrix(1 0 0 1 565.5078 105.7007)"><tspan x="0" y="0" font-family="'Sansation-Regular'" font-size="7.8579">0</tspan><tspan x="0" y="9.429" font-family="'Sansation-Regular'" font-size="7.8579">0</tspan><tspan x="0" y="18.859" font-family="'Sansation-Regular'" font-size="7.8579">0</tspan><tspan x="0" y="28.288" font-family="'Sansation-Regular'" font-size="7.8579">100</tspan></text>
			<text transform="matrix(1 0 0 1 598.249 105.7007)"><tspan x="0" y="0" font-family="'Sansation-Bold'" font-size="7.8579">r</tspan><tspan x="0" y="9.429" font-family="'Sansation-Bold'" font-size="7.8579">g</tspan><tspan x="0" y="18.859" font-family="'Sansation-Bold'" font-size="7.8579">b</tspan></text>
			<text transform="matrix(1 0 0 1 611.3457 105.7007)"><tspan x="0" y="0" font-family="'Sansation-Regular'" font-size="7.8579">0</tspan><tspan x="0" y="9.429" font-family="'Sansation-Regular'" font-size="7.8579">0</tspan><tspan x="0" y="18.859" font-family="'Sansation-Regular'" font-size="7.8579">0</tspan></text>
			
				<line fill="none" stroke="#000000" stroke-width="0.6548" stroke-miterlimit="10" x1="560.598" y1="97.189" x2="560.598" y2="137.46"/>
			
				<line fill="none" stroke="#000000" stroke-width="0.6548" stroke-miterlimit="10" x1="607.09" y1="97.189" x2="607.09" y2="137.46"/>
		</g>
	</g>
</g>
<g>
	
		<line fill="none" stroke="#000000" stroke-width="0.4683" stroke-miterlimit="10" x1="90.305" y1="45.391" x2="430.395" y2="45.391"/>
	<text transform="matrix(1 0 0 1 97.3608 38.4873)" font-family="'Sansation-Bold'" font-size="25.6696">color</text>
</g>
<g>
	
		<line fill="none" stroke="#000000" stroke-width="0.4683" stroke-miterlimit="10" x1="90.305" y1="215.891" x2="430.395" y2="215.891"/>
	<text transform="matrix(1 0 0 1 97.3608 206.3193)" font-family="'Sansation-Bold'" font-size="25.6696">font</text>
</g>
<g>
	
		<line fill="none" stroke="#000000" stroke-width="0.4683" stroke-miterlimit="10" x1="90.305" y1="386.391" x2="430.395" y2="386.391"/>
	<text transform="matrix(1 0 0 1 97.3608 376.8203)" font-family="'Sansation-Bold'" font-size="25.6696">logo  kolor</text>
</g>
<g>
	
		<line fill="none" stroke="#000000" stroke-width="0.4683" stroke-miterlimit="10" x1="90.305" y1="622.891" x2="430.395" y2="622.891"/>
	<text transform="matrix(1 0 0 1 97.3608 613.3203)" font-family="'Sansation-Bold'" font-size="25.6696">logo monochromatyczne</text>
</g>
<g>
	
		<line fill="none" stroke="#000000" stroke-width="0.4683" stroke-miterlimit="10" x1="90.305" y1="859.391" x2="430.395" y2="859.391"/>
	<text transform="matrix(1 0 0 1 97.3608 849.8203)" font-family="'Sansation-Bold'" font-size="25.6696">logo kontra</text>
</g>
<g>
	<text transform="matrix(1 0 0 1 222.3745 280.8779)" font-family="'Sansation-Bold'" font-size="30.0449">sansation</text>
	<text transform="matrix(1 0 0 1 222.3745 313.8555)" font-family="'Sansation-Light'" font-size="30.0449">sansation light</text>
</g>
<rect y="887.893" width="841.89" height="203"/>
<g>
	<g>
		<path fill="none" d="M244.404,979.665c-12.148,0-22.03,9.883-22.03,22.03s9.882,22.031,22.03,22.031
			c12.148,0,22.03-9.884,22.03-22.031S256.553,979.665,244.404,979.665z"/>
		<path fill="#D7DF23" d="M222.375,1001.695c0-12.147,9.882-22.03,22.03-22.03c12.148,0,22.03,9.883,22.03,22.03v-27.65
			c-6.049-4.829-13.706-7.727-22.03-7.727c-8.054,0-15.812,2.756-22.03,7.708v-32.312h-13.346v57.407h13.346V1001.695z"/>
		<path fill="#27AAE1" d="M225.429,941.715v13.348h41.005v18.982c8.125,6.488,13.346,16.468,13.346,27.65v-59.98H225.429z"/>
		<path fill="#4AA147" d="M266.435,974.045v27.65c0,12.147-9.882,22.031-22.03,22.031c-12.148,0-22.03-9.884-22.03-22.031v-2.573
			h-13.346v2.573c0,19.506,15.87,35.376,35.376,35.376c19.507,0,35.376-15.87,35.376-35.376
			C279.781,990.513,274.56,980.533,266.435,974.045z"/>
	</g>
	<g>
		<path fill="#FFFFFF" d="M290.537,972.354h4.472v10.394c1.917-0.806,3.972-1.208,6.164-1.208c8.024,0,12.037,4.061,12.037,12.182
			c0,8.798-4.214,13.197-12.642,13.197c-3.642,0-6.985-0.347-10.031-1.039V972.354z M295.008,1002.495
			c1.466,0.467,3.247,0.7,5.342,0.7c5.64,0,8.459-3.214,8.459-9.644c0-5.431-2.554-8.146-7.662-8.146
			c-2.32,0-4.367,0.435-6.139,1.305V1002.495z"/>
		<path fill="#FFFFFF" d="M315.419,999.256c0-5.204,3.432-7.807,10.297-7.807c2.208,0,4.415,0.161,6.623,0.483v-2.394
			c0-2.916-2.28-4.375-6.84-4.375c-2.61,0-5.285,0.403-8.024,1.209v-3.626c2.739-0.806,5.414-1.208,8.024-1.208
			c7.542,0,11.312,2.626,11.312,7.879v17.5h-2.514l-1.547-2.514c-2.53,1.676-5.286,2.514-8.267,2.514
			C318.441,1006.918,315.419,1004.364,315.419,999.256z M325.716,995.074c-3.884,0-5.825,1.37-5.825,4.109s1.531,4.108,4.592,4.108
			c3.094,0,5.712-0.821,7.855-2.465v-5.27C330.131,995.235,327.924,995.074,325.716,995.074z"/>
		<path fill="#FFFFFF" d="M341.257,981.539h19.82v3.625l-15.155,18.37h14.671v3.384h-19.82v-3.384l15.349-18.37h-14.865V981.539z"/>
		<path fill="#FFFFFF" d="M362.842,999.256c0-5.204,3.432-7.807,10.297-7.807c2.208,0,4.415,0.161,6.623,0.483v-2.394
			c0-2.916-2.28-4.375-6.84-4.375c-2.61,0-5.285,0.403-8.024,1.209v-3.626c2.739-0.806,5.414-1.208,8.024-1.208
			c7.542,0,11.312,2.626,11.312,7.879v17.5h-2.514l-1.547-2.514c-2.53,1.676-5.286,2.514-8.267,2.514
			C365.864,1006.918,362.842,1004.364,362.842,999.256z M373.139,995.074c-3.884,0-5.825,1.37-5.825,4.109s1.531,4.108,4.592,4.108
			c3.094,0,5.712-0.821,7.855-2.465v-5.27C377.554,995.235,375.347,995.074,373.139,995.074z"/>
		<path fill="#FFFFFF" d="M394.459,981.539v23.445c0,5.124-1.249,8.976-3.747,11.554l-3.746-2.538
			c2.014-2.176,3.021-5.181,3.021-9.016v-23.445H394.459z M394.459,972.354v4.23h-4.472v-4.23H394.459z"/>
		<path fill="#FFFFFF" d="M409.888,981.539c7.22,0,10.829,3.569,10.829,10.707c0,1.016-0.072,2.104-0.219,3.264h-17.813
			c0,5.188,3.029,7.782,9.088,7.782c2.884,0,5.446-0.321,7.686-0.967v3.626c-2.24,0.645-4.963,0.967-8.169,0.967
			c-8.717,0-13.076-4.326-13.076-12.979C398.213,985.672,402.105,981.539,409.888,981.539z M402.685,991.787h13.729
			c-0.097-4.447-2.272-6.671-6.526-6.671C405.376,985.116,402.975,987.34,402.685,991.787z"/>
		<path fill="#FFFFFF" d="M446.812,1005.396c-3.078,1.015-6.873,1.522-11.385,1.522c-7.558,0-11.336-4.399-11.336-13.197
			c0-8.121,4.013-12.182,12.037-12.182c2.191,0,4.262,0.402,6.212,1.208v-10.394h4.472V1005.396z M442.34,986.711
			c-1.805-0.87-3.867-1.305-6.188-1.305c-5.108,0-7.662,2.715-7.662,8.146c0,6.43,2.554,9.644,7.662,9.644
			c2.32,0,4.383-0.313,6.188-0.942V986.711z"/>
		<path fill="#FFFFFF" d="M451.258,981.539h19.82v3.625l-15.155,18.37h14.672v3.384h-19.82v-3.384l15.349-18.37h-14.865V981.539z"/>
		<path fill="#FFFFFF" d="M485.211,981.539c7.219,0,10.828,3.569,10.828,10.707c0,1.016-0.072,2.104-0.218,3.264h-17.813
			c0,5.188,3.029,7.782,9.088,7.782c2.885,0,5.446-0.321,7.687-0.967v3.626c-2.24,0.645-4.963,0.967-8.17,0.967
			c-8.718,0-13.076-4.326-13.076-12.979C473.536,985.672,477.428,981.539,485.211,981.539z M478.008,991.787h13.729
			c-0.097-4.447-2.271-6.671-6.525-6.671C480.698,985.116,478.298,987.34,478.008,991.787z"/>
		<path fill="#FFFFFF" d="M500.523,1006.918v-25.379h3.021l0.798,3.238c2.595-2.159,5.446-3.238,8.557-3.238
			c6.333,0,9.499,3.15,9.499,9.45v15.929h-4.472v-16.001c0-3.771-1.877-5.656-5.632-5.656c-2.562,0-4.995,1.072-7.3,3.215v18.442
			H500.523z"/>
		<path fill="#FFFFFF" d="M530.742,972.354v4.23h-4.472v-4.23H530.742z M530.742,981.539v25.379h-4.472v-25.379H530.742z"/>
		<path fill="#FFFFFF" d="M534.249,999.256c0-5.204,3.433-7.807,10.297-7.807c2.207,0,4.415,0.161,6.623,0.483v-2.394
			c0-2.916-2.281-4.375-6.841-4.375c-2.61,0-5.285,0.403-8.024,1.209v-3.626c2.739-0.806,5.414-1.208,8.024-1.208
			c7.541,0,11.312,2.626,11.312,7.879v17.5h-2.514l-1.547-2.514c-2.529,1.676-5.285,2.514-8.266,2.514
			C537.271,1006.918,534.249,1004.364,534.249,999.256z M544.546,995.074c-3.884,0-5.825,1.37-5.825,4.109s1.53,4.108,4.593,4.108
			c3.094,0,5.712-0.821,7.855-2.465v-5.27C548.961,995.235,546.753,995.074,544.546,995.074z"/>
		<path fill="#FFFFFF" d="M563.207,1003.896v3.021h-3.263v-3.021H563.207z"/>
		<path fill="#FFFFFF" d="M567.753,982.578c2.885-0.692,6.123-1.039,9.717-1.039c8.137,0,12.206,4.021,12.206,12.061
			c0,8.879-4.093,13.318-12.278,13.318c-2.03,0-4.399-0.402-7.106-1.209v10.394h-2.538V982.578z M570.291,1003.195
			c2.562,0.87,4.923,1.306,7.082,1.306c6.558,0,9.837-3.649,9.837-10.949c0-6.494-3.263-9.741-9.789-9.741
			c-2.256,0-4.633,0.193-7.13,0.58V1003.195z"/>
		<path fill="#FFFFFF" d="M594.521,972.354v34.564h-2.538v-34.564H594.521z"/>
	</g>
</g>
</svg>
