<?xml version="1.0" standalone="no"?>
<!DOCTYPE svg PUBLIC "-//W3C//DTD SVG 20010904//EN"
 "http://www.w3.org/TR/2001/REC-SVG-20010904/DTD/svg10.dtd">
<svg version="1.0" xmlns="http://www.w3.org/2000/svg"
 width="90.000000pt" height="120.000000pt" viewBox="0 0 90.000000 120.000000"
 preserveAspectRatio="xMidYMid meet">
<metadata>
Created by potrace 1.15, written by Peter Selinger 2001-2017
</metadata>
<g transform="translate(0.000000,120.000000) scale(0.100000,-0.100000)"
fill="#000000" stroke="none">
<path d="M80 770 l0 -280 73 0 74 0 18 41 c33 72 119 129 195 129 69 0 169
-60 185 -111 15 -46 25 -11 25 86 l0 105 -52 27 c-48 25 -63 28 -158 28 -95 0
-110 -3 -157 -28 l-53 -27 0 155 0 155 -75 0 -75 0 0 -280z"/>
<path d="M250 980 l0 -70 206 0 205 0 -3 -257 c-3 -243 -4 -260 -25 -299 -69
-128 -218 -162 -326 -73 -48 39 -70 81 -77 144 l-5 50 -74 3 -74 3 6 -59 c14
-134 84 -240 197 -298 50 -27 64 -29 160 -29 100 0 108 1 168 34 120 65 185
170 186 301 1 41 -2 90 -6 108 -5 21 -4 31 2 27 7 -4 10 81 10 239 l0 246
-275 0 -275 0 0 -70z"/>
</g>
</svg>
