<svg xmlns="http://www.w3.org/2000/svg" xmlns:xlink="http://www.w3.org/1999/xlink" version="1.1" width="385" height="95" enable-background="new 0 0 841.89 1090.893" xml:space="preserve" style=""><rect id="backgroundrect" width="100%" height="100%" x="0" y="0" fill="none" stroke="none"/>
    
    

<g class="currentLayer" style=""><title>Layer 1</title><g id="svg_1" class="">
	<g id="svg_2">
		<path fill="none" d="M35.374993041992184,37.95003881835936 c-12.148,0 -22.03,9.883000000000001 -22.03,22.03 s9.882,22.031 22.03,22.031 c12.148,0 22.03,-9.884 22.03,-22.031 S47.523993041992185,37.95003881835936 35.374993041992184,37.95003881835936 z" id="svg_3"/>
		<path fill="#D7DF23" d="M13.345993041992188,59.981038818359366 c0,-12.147 9.882,-22.03 22.03,-22.03 c12.148,0 22.03,9.883000000000001 22.03,22.03 v-27.65 c-6.049,-4.829 -13.706,-7.727 -22.03,-7.727 c-8.054,0 -15.812,2.7560000000000002 -22.03,7.708 v-32.312 h-13.346 v57.407 h13.346 V59.981038818359366 z" id="svg_4"/>
		<path fill="#27AAE1" d="M16.39999304199219,0.00003881835937136202 v13.348 h41.005 v18.982 c8.125,6.488 13.346,16.468 13.346,27.65 v-59.98 H16.39999304199219 z" id="svg_5"/>
		<path fill="#4AA147" d="M57.40599304199219,32.330038818359355 v27.65 c0,12.147 -9.882,22.031 -22.03,22.031 c-12.148,0 -22.03,-9.884 -22.03,-22.031 v-2.573 h-13.346 v2.573 c0,19.506 15.870000000000001,35.376 35.376,35.376 c19.507,0 35.376,-15.870000000000001 35.376,-35.376 C70.7519930419922,48.79803881835937 65.53099304199219,38.81903881835939 57.40599304199219,32.330038818359355 z" id="svg_6"/>
	</g>
	<g id="svg_7">
		<path d="M81.50799304199217,30.63903881835938 h4.472 v10.394 c1.917,-0.806 3.972,-1.208 6.164,-1.208 c8.024,0 12.037,4.061 12.037,12.182 c0,8.798 -4.214,13.197 -12.642,13.197 c-3.6420000000000003,0 -6.985,-0.3470000000000001 -10.031,-1.039 V30.63903881835938 zM85.97899304199217,60.78103881835938 c1.466,0.467 3.247,0.7000000000000001 5.3420000000000005,0.7000000000000001 c5.640000000000001,0 8.459,-3.214 8.459,-9.644 c0,-5.431 -2.5540000000000003,-8.146 -7.662,-8.146 c-2.3200000000000003,0 -4.367,0.43500000000000005 -6.139,1.3050000000000002 V60.78103881835938 z" id="svg_8"/>
		<path d="M106.38999304199217,57.54103881835937 c0,-5.204 3.432,-7.807 10.297,-7.807 c2.208,0 4.415,0.16100000000000003 6.623,0.48300000000000004 v-2.394 c0,-2.916 -2.2800000000000002,-4.375 -6.84,-4.375 c-2.6100000000000003,0 -5.285,0.403 -8.024,1.209 v-3.6260000000000003 c2.739,-0.806 5.414,-1.208 8.024,-1.208 c7.542,0 11.312,2.6260000000000003 11.312,7.8790000000000004 v17.5 h-2.5140000000000002 l-1.5470000000000002,-2.5140000000000002 c-2.5300000000000002,1.6760000000000002 -5.286,2.5140000000000002 -8.267,2.5140000000000002 C109.41199304199216,65.20303881835935 106.38999304199217,62.65003881835935 106.38999304199217,57.54103881835937 zM116.6869930419922,53.360038818359385 c-3.8840000000000003,0 -5.825,1.37 -5.825,4.109 s1.5310000000000001,4.108 4.5920000000000005,4.108 c3.094,0 5.712,-0.8210000000000001 7.855,-2.465 v-5.27 C121.10199304199216,53.521038818359386 118.89499304199217,53.360038818359385 116.6869930419922,53.360038818359385 z" id="svg_9"/>
		<path d="M132.2279930419922,39.82503881835936 h19.82 v3.625 l-15.155,18.37 h14.671 v3.384 h-19.82 v-3.384 l15.349,-18.37 h-14.865 V39.82503881835936 z" id="svg_10"/>
		<path d="M153.81299304199217,57.54103881835937 c0,-5.204 3.432,-7.807 10.297,-7.807 c2.208,0 4.415,0.16100000000000003 6.623,0.48300000000000004 v-2.394 c0,-2.916 -2.2800000000000002,-4.375 -6.84,-4.375 c-2.6100000000000003,0 -5.285,0.403 -8.024,1.209 v-3.6260000000000003 c2.739,-0.806 5.414,-1.208 8.024,-1.208 c7.542,0 11.312,2.6260000000000003 11.312,7.8790000000000004 v17.5 h-2.5140000000000002 l-1.5470000000000002,-2.5140000000000002 c-2.5300000000000002,1.6760000000000002 -5.286,2.5140000000000002 -8.267,2.5140000000000002 C156.83499304199216,65.20303881835935 153.81299304199217,62.65003881835935 153.81299304199217,57.54103881835937 zM164.1099930419922,53.360038818359385 c-3.8840000000000003,0 -5.825,1.37 -5.825,4.109 s1.5310000000000001,4.108 4.5920000000000005,4.108 c3.094,0 5.712,-0.8210000000000001 7.855,-2.465 v-5.27 C168.52499304199216,53.521038818359386 166.31799304199217,53.360038818359385 164.1099930419922,53.360038818359385 z" id="svg_11"/>
		<path d="M185.4299930419922,39.82503881835936 v23.445 c0,5.124 -1.249,8.975999999999999 -3.747,11.554 l-3.746,-2.5380000000000003 c2.014,-2.176 3.021,-5.181 3.021,-9.016 v-23.445 H185.4299930419922 zM185.4299930419922,30.63903881835938 v4.23 h-4.472 v-4.23 H185.4299930419922 z" id="svg_12"/>
		<path d="M200.85899304199216,39.82503881835936 c7.22,0 10.829,3.569 10.829,10.707 c0,1.016 -0.07200000000000001,2.104 -0.21900000000000003,3.2640000000000002 h-17.813 c0,5.188 3.029,7.782 9.088,7.782 c2.8840000000000003,0 5.446,-0.32100000000000006 7.686,-0.9670000000000001 v3.6260000000000003 c-2.24,0.6450000000000001 -4.963,0.9670000000000001 -8.169,0.9670000000000001 c-8.717,0 -13.076,-4.3260000000000005 -13.076,-12.979 C189.1839930419922,43.957038818359365 193.0759930419922,39.82503881835936 200.85899304199216,39.82503881835936 zM193.6559930419922,50.07303881835935 h13.729 c-0.09700000000000003,-4.447 -2.2720000000000002,-6.671 -6.526,-6.671 C196.34699304199216,43.40203881835936 193.9459930419922,45.62503881835937 193.6559930419922,50.07303881835935 z" id="svg_13"/>
		<path d="M237.7829930419922,63.681038818359355 c-3.078,1.015 -6.873,1.522 -11.385,1.522 c-7.558,0 -11.336,-4.399 -11.336,-13.197 c0,-8.121 4.013,-12.182 12.037,-12.182 c2.191,0 4.2620000000000005,0.402 6.212,1.208 v-10.394 h4.472 V63.681038818359355 zM233.31099304199216,44.99603881835935 c-1.8050000000000002,-0.8700000000000001 -3.867,-1.3050000000000002 -6.188,-1.3050000000000002 c-5.108,0 -7.662,2.715 -7.662,8.146 c0,6.43 2.5540000000000003,9.644 7.662,9.644 c2.3200000000000003,0 4.383,-0.31300000000000006 6.188,-0.9420000000000001 V44.99603881835935 z" id="svg_14"/>
		<path d="M242.22899304199217,39.82503881835936 h19.82 v3.625 l-15.155,18.37 h14.672 v3.384 h-19.82 v-3.384 l15.349,-18.37 h-14.865 V39.82503881835936 z" id="svg_15"/>
		<path d="M276.1819930419922,39.82503881835936 c7.219,0 10.828,3.569 10.828,10.707 c0,1.016 -0.07200000000000001,2.104 -0.21800000000000003,3.2640000000000002 h-17.813 c0,5.188 3.029,7.782 9.088,7.782 c2.8850000000000002,0 5.446,-0.32100000000000006 7.687,-0.9670000000000001 v3.6260000000000003 c-2.24,0.6450000000000001 -4.963,0.9670000000000001 -8.17,0.9670000000000001 c-8.718,0 -13.076,-4.3260000000000005 -13.076,-12.979 C264.5069930419922,43.957038818359365 268.3989930419922,39.82503881835936 276.1819930419922,39.82503881835936 zM268.97899304199217,50.07303881835935 h13.729 c-0.09700000000000003,-4.447 -2.271,-6.671 -6.525,-6.671 C271.66899304199217,43.40203881835936 269.2689930419922,45.62503881835937 268.97899304199217,50.07303881835935 z" id="svg_16"/>
		<path d="M291.4939930419922,65.20303881835935 v-25.379 h3.021 l0.798,3.238 c2.595,-2.159 5.446,-3.238 8.557,-3.238 c6.333,0 9.499,3.15 9.499,9.45 v15.929 h-4.472 v-16.001 c0,-3.771 -1.8770000000000002,-5.656000000000001 -5.632,-5.656000000000001 c-2.5620000000000003,0 -4.995,1.072 -7.3,3.215 v18.442 H291.4939930419922 z" id="svg_17"/>
		<path d="M321.71299304199215,30.63903881835938 v4.23 h-4.472 v-4.23 H321.71299304199215 zM321.71299304199215,39.82503881835936 v25.379 h-4.472 v-25.379 H321.71299304199215 z" id="svg_18"/>
		<path d="M325.2199930419922,57.54103881835937 c0,-5.204 3.433,-7.807 10.297,-7.807 c2.207,0 4.415,0.16100000000000003 6.623,0.48300000000000004 v-2.394 c0,-2.916 -2.281,-4.375 -6.841,-4.375 c-2.6100000000000003,0 -5.285,0.403 -8.024,1.209 v-3.6260000000000003 c2.739,-0.806 5.414,-1.208 8.024,-1.208 c7.541,0 11.312,2.6260000000000003 11.312,7.8790000000000004 v17.5 h-2.5140000000000002 l-1.5470000000000002,-2.5140000000000002 c-2.529,1.6760000000000002 -5.285,2.5140000000000002 -8.266,2.5140000000000002 C328.24199304199215,65.20303881835935 325.2199930419922,62.65003881835935 325.2199930419922,57.54103881835937 zM335.51699304199224,53.360038818359385 c-3.8840000000000003,0 -5.825,1.37 -5.825,4.109 s1.53,4.108 4.593,4.108 c3.094,0 5.712,-0.8210000000000001 7.855,-2.465 v-5.27 C339.9319930419922,53.521038818359386 337.72399304199223,53.360038818359385 335.51699304199224,53.360038818359385 z" id="svg_19"/>
		<path d="M354.1779930419922,62.18203881835939 v3.021 h-3.263 v-3.021 H354.1779930419922 z" id="svg_20"/>
		<path d="M358.72399304199223,40.86403881835935 c2.8850000000000002,-0.6920000000000002 6.123,-1.039 9.717,-1.039 c8.137,0 12.206,4.021 12.206,12.061 c0,8.879 -4.093,13.318 -12.278,13.318 c-2.03,0 -4.399,-0.402 -7.106,-1.209 v10.394 h-2.5380000000000003 V40.86403881835935 zM361.26199304199224,61.481038818359366 c2.5620000000000003,0.8700000000000001 4.923,1.306 7.082,1.306 c6.558,0 9.837,-3.649 9.837,-10.949 c0,-6.494 -3.263,-9.741 -9.789,-9.741 c-2.2560000000000002,0 -4.633,0.19300000000000003 -7.13,0.5800000000000001 V61.481038818359366 z" id="svg_21"/>
		<path d="M385.49199304199215,30.63903881835938 v34.564 h-2.5380000000000003 v-34.564 H385.49199304199215 z" id="svg_22"/>
	</g>
</g></g></svg>