<?xml version="1.0" standalone="no"?>
<!DOCTYPE svg PUBLIC "-//W3C//DTD SVG 20010904//EN"
 "http://www.w3.org/TR/2001/REC-SVG-20010904/DTD/svg10.dtd">
<svg version="1.0" xmlns="http://www.w3.org/2000/svg"
 width="120.000000pt" height="120.000000pt" viewBox="0 0 120.000000 120.000000"
 preserveAspectRatio="xMidYMid meet">
<metadata>
Created by potrace 1.11, written by Peter Selinger 2001-2013
</metadata>
<g transform="translate(0.000000,120.000000) scale(0.100000,-0.100000)"
fill="#000000" stroke="none">
<path d="M250 752 c1 -342 3 -365 47 -447 24 -47 95 -115 144 -141 140 -72
318 -40 423 76 87 96 93 131 93 518 l1 322 -272 0 -271 0 -1 -65 c-1 -40 3
-66 10 -66 6 -1 94 -2 196 -3 102 -1 190 -4 196 -8 8 -5 12 -131 5 -169 -1 -3
-29 8 -63 25 -56 28 -71 31 -158 31 -87 0 -100 -3 -150 -30 -30 -16 -58 -31
-61 -33 -3 -1 -5 69 -5 155 l0 158 -67 3 -67 3 0 -329z m460 -82 c40 -21 100
-90 100 -117 0 -8 3 -12 8 -10 13 9 4 -105 -13 -149 -30 -80 -120 -137 -210
-133 -158 7 -258 177 -186 318 55 106 190 148 301 91z"/>
</g>
</svg>
